<svg xmlns="http://www.w3.org/2000/svg" xmlns:xlink="http://www.w3.org/1999/xlink" viewBox="0 0 1268 337"><defs><style>.cls-1{fill:url(#未命名的渐变_74);}.cls-2{fill:url(#未命名的渐变_58);}.cls-3{fill:#fff;}</style><linearGradient id="未命名的渐变_74" x1="5.82" y1="247.34" x2="358.91" y2="43.48" gradientUnits="userSpaceOnUse"><stop offset="0" stop-color="#0064b4"/><stop offset="0.6" stop-color="#00b2e4"/><stop offset="0.68" stop-color="#19b7e8"/><stop offset="0.82" stop-color="#41bfed"/><stop offset="0.93" stop-color="#59c4f1"/><stop offset="1" stop-color="#62c6f2"/></linearGradient><linearGradient id="未命名的渐变_58" x1="29.78" y1="288.84" x2="379.64" y2="86.85" gradientUnits="userSpaceOnUse"><stop offset="0" stop-color="#e50b78"/><stop offset="0.12" stop-color="#df0d79"/><stop offset="0.28" stop-color="#ce147d"/><stop offset="0.46" stop-color="#b21f84"/><stop offset="0.66" stop-color="#8b2f8d"/><stop offset="0.87" stop-color="#594299"/><stop offset="1" stop-color="#3650a1"/></linearGradient></defs><title>资源 1</title><g id="图层_2" data-name="图层 2"><g id="图层_1-2" data-name="图层 1"><path class="cls-1" d="M5.74,156.81c8.31,50.24,22.51,104.08,43.41,164.58l.14.39,0,.08a22.77,22.77,0,0,0,.93,2.27l.12.25.21.41.28.54.16.28c.13.24.27.47.42.7l.08.13A22.66,22.66,0,0,0,56.44,332l.18.15.57.43.33.24.42.29.44.29h0q.7.45,1.44.85l0,0,.72.38.06,0a22.66,22.66,0,0,0,3,1.23l.19.06.63.19.39.1.52.13.95.2.15,0,1,.16h.11c.42.06.85.1,1.28.13l.64,0,.76,0h.37c.74,0,1.46,0,2.18-.11h.13l.84-.1.31,0,.61-.11.47-.09.28-.06c.46-.1.92-.22,1.37-.35l.54-.17.77-.25c.4-.14.8-.3,1.18-.46l.32-.13q.75-.33,1.48-.71A22.64,22.64,0,0,0,87,330l0,0c.21-.22.42-.46.62-.69l.13-.14.49-.6.22-.28.37-.49.31-.43.25-.38.37-.58.16-.26c.14-.24.28-.47.41-.71l.09-.17q.22-.41.42-.82l.05-.11q.21-.44.4-.88l0-.09q.19-.44.36-.9l0-.13q.16-.42.3-.85l.07-.22q.12-.38.22-.76l.1-.38q.08-.3.15-.61t.12-.57l.08-.42q.07-.39.13-.79l0-.22c0-.33.08-.67.11-1v0q0-.55.07-1.1c0-.17,0-.35,0-.52a22.48,22.48,0,0,0-1.24-7.64c-10.43-30.17-19.12-58.54-26.17-85.54C59.16,196.45,54,172.52,50.2,149.46,43.18,107,44.7,84.38,47,74.53v0a1.88,1.88,0,0,1,2.73-1.21l.1.05.47.26c22.32,12.66,41.36,31.47,59.77,49.67l1.66,1.64c20.66,20.42,42,41.54,64.26,61.41l4,3.62c18.38,16.46,37.38,33.48,59.24,46.75q2.54,1.54,5,3c17,9.82,32.66,16.15,47.63,19.21a103.16,103.16,0,0,0,26.9,2,88.8,88.8,0,0,0,48.47-18c19.23-14.54,31-35.38,34.17-60.27,3.49-27.82-3.46-60.83-20.66-98.12a387.58,387.58,0,0,0-46.6-75.8l-.46-.56-.4-.47L333,7.25l-.4-.43-.43-.42-.4-.39c-.28-.26-.57-.51-.86-.76L330.59,5l-.49-.39-.49-.36-.39-.28-.51-.33-.42-.27-.46-.27-.5-.29L327,2.58l-.64-.33-.23-.11-.8-.36-.07,0A22.64,22.64,0,0,0,315.76,0c-.42,0-.83,0-1.25.08l-.61.07-.6.08c-.43.06-.85.14-1.26.22l-.34.07c-.53.11-1,.24-1.55.39L310,1l-.89.29-.28.1-.73.27-.42.17-.57.25-.55.26-.42.21-.67.36L305.2,3l-.8.48-.14.09q-.46.3-.91.62h0c-.41.3-.81.61-1.2.93l-.33.28c-.38.33-.76.66-1.12,1a22.66,22.66,0,0,0-4.36,6l-.08.16c-.11.22-.21.45-.32.68l-.16.36-.2.5c-.07.19-.15.37-.22.56l-.11.31c-.09.25-.18.51-.26.77l0,.11a22.65,22.65,0,0,0-1,7.68c0,.28,0,.56,0,.84v.05c0,.37.07.73.12,1.1a22.42,22.42,0,0,0,4.72,11c14.74,18.47,32.91,46.93,45,75.94,9.47,22.64,15.27,45.63,12.9,64.48-1.64,13.08-6.93,22.6-16.64,29.94a44.37,44.37,0,0,1-19.3,8.45,42.16,42.16,0,0,1-4.63.53c-11.8.68-25.2-2.79-40.71-10.6q-6.19-3.11-12.83-7.15c-18.29-11.1-35.71-26.71-52.56-41.8l-4.08-3.66c-21.4-19.12-42.35-39.83-62.61-59.86l-1.66-1.64C121.29,71,100.09,50,72.57,34.41c-23.91-13.56-40.48-8.34-50.18-1.57C8.09,42.82-9.19,66.53,5.74,156.81Z"/><path class="cls-2" d="M49.15,321.39l.14.39,0,.08a22.77,22.77,0,0,0,.93,2.27l.12.25.21.41.28.54.16.28c.13.24.27.47.42.7l.08.13A22.66,22.66,0,0,0,56.44,332l.18.15.57.43.33.24.42.29.44.29h0q.7.45,1.44.85l0,0,.72.38.06,0a22.66,22.66,0,0,0,3,1.23l.19.06.63.19.39.1.52.13.95.2.15,0,1,.16h.11c.42.06.85.1,1.28.13l.64,0,.76,0h.37c.74,0,1.46,0,2.18-.11h.13l.84-.1.31,0,.61-.11.47-.09.28-.06c.46-.1.92-.22,1.37-.35l.54-.17.77-.25c.4-.14.8-.3,1.18-.46l.32-.13q.75-.33,1.48-.71A22.64,22.64,0,0,0,87,330l0,0c.21-.22.42-.46.62-.69l.13-.14.49-.6.22-.28.37-.49.31-.43.25-.38.37-.58.16-.26c.14-.24.28-.47.41-.71l.09-.17q.22-.41.42-.82l.05-.11q.21-.44.4-.88l0-.09q.19-.44.36-.9l0-.13q.16-.42.3-.85l.07-.22q.12-.38.22-.76l.1-.38q.08-.3.15-.61t.12-.57l.08-.42q.07-.39.13-.79l0-.22c0-.33.08-.67.11-1v0q0-.55.07-1.1c0-.17,0-.35,0-.52.11-3.36.19-6.81.27-10.34.5-22.07,1.06-47.08,11.83-60.71,6.66-8.43,13.8-11.4,56.68,18.34,10.68,7.41,20.77,14.41,30.55,18.92,22.31,10.29,45.34,10.86,66.6,1.65C272,277,282.87,268.53,292,258.9c13.17-13.91,22.6-30.17,28.89-43.51a198.88,198.88,0,0,0,8.75-21.72c9-27,13-54.74,14.28-81.14,1.65-34.94-1.66-67.55-5.1-93A22.44,22.44,0,0,0,334.27,8.7l-.46-.56-.4-.47L333,7.25l-.4-.43-.43-.42-.4-.39c-.28-.26-.57-.51-.86-.76L330.59,5l-.49-.39-.49-.36-.39-.28-.51-.33-.42-.27-.46-.27-.5-.29L327,2.58l-.64-.33-.23-.11-.8-.36-.07,0A22.64,22.64,0,0,0,315.76,0c-.42,0-.83,0-1.25.08l-.61.07-.6.08c-.43.06-.85.14-1.26.22l-.34.07c-.53.11-1,.24-1.55.39L310,1l-.89.29-.28.1-.73.27-.42.17-.57.25-.55.26-.42.21-.67.36L305.2,3l-.8.48-.14.09q-.46.3-.91.62h0c-.41.3-.81.61-1.2.93l-.33.28c-.38.33-.76.66-1.12,1a22.66,22.66,0,0,0-4.36,6l-.08.16c-.11.22-.21.45-.32.68l-.16.36-.2.5c-.07.19-.15.37-.22.56l-.11.31c-.09.25-.18.51-.26.77l0,.11a22.65,22.65,0,0,0-1,7.68c0,.28,0,.56,0,.84v.05c0,.37.07.73.12,1.1h0c8.65,64,6.33,112.91-7.29,153.92a150.69,150.69,0,0,1-11.33,25.86c-8.88,15.9-19.94,28.26-31.18,34.36-1.07.58-2.15,1.11-3.23,1.58-9.55,4.14-19,3.75-29.8-1.22-6.2-2.86-14.72-8.77-23.73-15-15.56-10.79-33.19-23-51.71-28.76-26.22-8.12-49.67-1.19-66,19.51-1.49,1.88-2.86,3.82-4.14,5.8-16.07,24.73-16.8,56.18-17.37,81.83-.08,3.51-.16,7-.27,10.28A22.49,22.49,0,0,0,49.15,321.39Z"/><path class="cls-3" d="M835.29,93.06H800.1l-5.86,14.85H745v19.5H786.5l-32.87,84.91h102v50.11c0,11.55-1.92,16.54-5.73,19.89s-9.66,5.1-17.41,5.24v18.65q30.15-1,44.16-13.13c9.32-8.11,14-20.56,14-37.23V212.31h97.1V192.83h-97.1V159.25h-35v33.57H798.42L822.6,127.4H997.52V107.9H829.8Z"/><path class="cls-3" d="M708.35,218.3V142.93h-230v75.52h97.4v44c0,11.06-1.94,16.54-5.74,19.89s-9.66,5.1-17.4,5.24v18.65q30.15-1,44.17-13.13c9.3-8.11,14-20.56,14-37.23V218.45h97.53ZM674.58,199H512.18V162.43H674.58Z"/><polygon class="cls-3" points="610.95 93.06 575.78 93.06 575.78 107.9 467.77 107.9 467.77 127.4 719 127.4 719 107.9 610.95 107.9 610.95 93.06"/><polygon class="cls-3" points="472 306.19 491.94 306.19 532.12 238.84 498.33 238.84 472 306.19"/><polygon class="cls-3" points="654.67 238.84 694.84 306.19 714.76 306.19 688.43 238.84 654.67 238.84"/><polygon class="cls-3" points="749.25 306.19 769.19 306.19 809.37 238.84 775.58 238.84 749.25 306.19"/><polygon class="cls-3" points="933.2 238.84 973.37 306.19 993.29 306.19 966.96 238.84 933.2 238.84"/><rect class="cls-3" x="1033.9" y="101.62" width="216.97" height="19.5"/><path class="cls-3" d="M1268,204.19v-19.5H1016.77v19.5h47.05l-25.34,102h151.07q30.15-1,44.16-13.13c9.32-8.11,14-20.56,14-37.23V240.11h-35v21.47c0,11.55-2.14,16.54-5.95,19.89s-9.44,5.1-17.19,5.24H1080.27l19.09-82.52Z"/></g></g></svg>